<?xml version="1.0" encoding="utf-8"?>
<!-- Generator: Adobe Illustrator 16.0.0, SVG Export Plug-In . SVG Version: 6.00 Build 0)  -->
<!DOCTYPE svg PUBLIC "-//W3C//DTD SVG 1.1//EN" "http://www.w3.org/Graphics/SVG/1.1/DTD/svg11.dtd">
<svg version="1.1" id="Layer_1" xmlns="http://www.w3.org/2000/svg" xmlns:xlink="http://www.w3.org/1999/xlink" x="0px" y="0px"
	 width="300px" height="100px" viewBox="0 0 300 100" enable-background="new 0 0 300 100" xml:space="preserve">
<g>
	<path fill="#FFFFFF" d="M36.928,34.108l-2.702,18.12h-1.431l5.775-38.574h12.558c3.92,0,6.875,0.888,8.862,2.663
		c1.987,1.775,2.743,4.331,2.265,7.669c-0.353,2.261-1.351,4.265-2.994,6.014c-1.643,1.749-3.727,2.871-6.252,3.365
		c2.614,0.494,4.433,1.528,5.458,3.1c1.024,1.572,1.369,3.542,1.033,5.908l-0.556,3.63c-0.194,1.236-0.212,2.317-0.053,3.245
		c0.159,0.927,0.53,1.701,1.113,2.318l-0.106,0.662h-1.403c-0.531-0.725-0.879-1.62-1.047-2.689
		c-0.168-1.068-0.146-2.265,0.066-3.59l0.53-3.523c0.405-2.72-0.172-4.787-1.736-6.2c-1.563-1.413-4.022-2.119-7.378-2.119H36.928z
		 M37.141,32.677h10.889c3.78,0,6.765-0.844,8.955-2.53c2.19-1.687,3.47-3.74,3.841-6.16c0.442-3.002-0.155-5.236-1.788-6.703
		c-1.634-1.466-4.34-2.199-8.12-2.199H39.79L37.141,32.677z"/>
	<path fill="#FFFFFF" d="M87.08,46.931c-1.236,1.73-2.914,3.135-5.033,4.212c-2.12,1.078-4.575,1.615-7.365,1.615
		c-2.561,0-4.517-0.736-5.868-2.211c-1.351-1.475-1.841-3.43-1.471-5.868c0.354-2.491,1.779-4.526,4.279-6.106
		c2.499-1.582,5.471-2.372,8.915-2.372h8.16l0.635-4.186c0.371-2.473-0.101-4.353-1.417-5.643c-1.316-1.29-3.377-1.935-6.186-1.935
		c-2.49,0-4.645,0.632-6.464,1.895c-1.82,1.262-2.879,2.875-3.179,4.834l-1.192-0.053l-0.026-0.132
		c0.248-2.297,1.391-4.2,3.431-5.709c2.04-1.51,4.588-2.265,7.644-2.265c2.967,0,5.285,0.786,6.954,2.358
		c1.669,1.572,2.292,3.806,1.868,6.702l-2.146,14.36c-0.159,1.042-0.256,2.031-0.291,2.967s0.018,1.872,0.159,2.807h-1.59
		c-0.036-1.482-0.049-2.48-0.04-2.992c0.009-0.512,0.066-1.13,0.172-1.855L87.08,46.931z M74.893,51.355
		c2.738,0,5.206-0.632,7.405-1.896c2.199-1.263,3.935-3.042,5.206-5.338l0.981-6.464h-8.107c-2.861,0-5.444,0.689-7.749,2.066
		c-2.305,1.378-3.598,3.064-3.881,5.06c-0.3,1.996,0.106,3.59,1.219,4.782C71.078,50.758,72.721,51.355,74.893,51.355z"/>
	<path fill="#FFFFFF" d="M116.381,52.201l0.53-4.9c-1.167,1.766-2.645,3.117-4.438,4.054c-1.793,0.936-3.882,1.402-6.266,1.402
		c-2.843,0-4.971-1.059-6.385-3.178c-1.413-2.12-1.784-5.352-1.113-9.697l2.438-16.346h1.431l-2.464,16.4
		c-0.618,4.044-0.354,6.955,0.794,8.729s2.967,2.662,5.458,2.662c2.843,0,5.193-0.738,7.047-2.212
		c1.854-1.475,3.197-3.405,4.027-5.789l2.967-19.791h1.458l-2.543,16.876h0.08c0.053-0.283,0.026-0.124-0.08,0.477
		s-0.185,1.006-0.239,1.218l-1.509,10.093H116.381z"/>
	<path fill="#FFFFFF" d="M128.436,52.201h-1.431l6.199-41.328h1.431L128.436,52.201z"/>
	<path fill="#FFFFFF" d="M155.457,35.644l-2.463,16.557h-1.432l5.777-38.573h12.053c3.85,0,6.738,1.016,8.664,3.047
		c1.926,2.031,2.639,4.68,2.145,7.947c-0.514,3.479-1.979,6.187-4.398,8.12c-2.42,1.934-5.65,2.901-9.695,2.901H155.457z
		 M155.67,34.213h10.648c3.498,0,6.348-0.918,8.545-2.755c2.201-1.836,3.5-4.098,3.906-6.783c0.424-2.878-0.141-5.201-1.695-6.968
		c-1.555-1.766-4.184-2.649-7.893-2.649h-10.623L155.67,34.213z"/>
	<path fill="#FFFFFF" d="M193.027,52.758c-3.232,0-5.854-1.32-7.857-3.96c-2.006-2.641-2.705-5.921-2.105-9.842l0.266-1.695
		c0.637-4.31,2.293-7.763,4.967-10.359c2.678-2.596,5.779-3.894,9.311-3.894c3.074,0,5.422,1.06,7.049,3.179
		c1.625,2.12,2.172,4.962,1.641,8.53l-0.318,2.199h-21.164c0,0.053-0.012,0.12-0.029,0.199s-0.025,0.128-0.025,0.146l-0.264,1.695
		c-0.547,3.62-0.014,6.588,1.604,8.902c1.613,2.313,3.994,3.47,7.139,3.47c1.643,0,3.324-0.318,5.047-0.954
		c1.721-0.636,3.148-1.483,4.279-2.543l0.582,1.113c-1.148,1.113-2.574,2.027-4.277,2.742
		C197.162,52.4,195.217,52.758,193.027,52.758z M197.396,24.438c-2.844,0-5.391,1.042-7.641,3.126
		c-2.254,2.085-3.752,4.672-4.494,7.763l0.053,0.159h19.447l0.133-0.874c0.441-3.073,0.008-5.537-1.299-7.392
		S200.223,24.438,197.396,24.438z"/>
	<path fill="#FFFFFF" d="M219.014,15.801l-1.164,7.736h7.047l-0.213,1.458h-7.045l-2.971,19.816c-0.369,2.438-0.23,4.133,0.41,5.087
		c0.646,0.954,1.633,1.431,2.957,1.431c0.461,0,0.891-0.018,1.299-0.053c0.404-0.035,0.918-0.098,1.535-0.186l0.082,1.297
		c-0.479,0.143-0.957,0.238-1.432,0.293c-0.479,0.053-1.016,0.078-1.617,0.078c-1.855,0-3.203-0.635-4.051-1.907
		c-0.85-1.271-1.063-3.285-0.637-6.041l2.965-19.816h-5.297l0.213-1.458h5.297l1.166-7.736H219.014z"/>
	<path fill="#FFFFFF" d="M244.129,24.57l-1.826-0.159c-2.471,0-4.654,0.853-6.545,2.557c-1.889,1.704-3.285,3.917-4.186,6.637
		l-2.781,18.597h-1.428l4.289-28.665h1.168l-0.479,4.981l-0.105,0.635l0.131,0.08c1.023-1.978,2.395-3.51,4.107-4.597
		c1.715-1.086,3.727-1.629,6.043-1.629c0.387,0,0.756,0.031,1.111,0.092c0.352,0.063,0.641,0.128,0.873,0.199L244.129,24.57z"/>
	<path fill="#FFFFFF" d="M264.93,52.201l0.529-4.9c-1.166,1.766-2.646,3.117-4.441,4.054c-1.789,0.936-3.877,1.402-6.264,1.402
		c-2.842,0-4.971-1.059-6.385-3.178s-1.785-5.352-1.113-9.697l2.436-16.346h1.432l-2.463,16.4c-0.615,4.044-0.352,6.955,0.795,8.729
		c1.15,1.775,2.969,2.662,5.457,2.662c2.848,0,5.193-0.738,7.049-2.212c1.854-1.475,3.197-3.405,4.027-5.789l2.967-19.791h1.457
		l-2.545,16.876h0.082c0.053-0.283,0.023-0.124-0.082,0.477s-0.184,1.006-0.236,1.218l-1.512,10.093H264.93z"/>
</g>
<rect y="58" fill="#FFFFFF" width="300" height="1"/>
<g>
	<path fill="#FFFFFF" d="M19.924,78.08l0.482,2.275h0.068l0.575-2.275l2.64-8.391h1.183l2.641,8.391l0.574,2.344h0.068l0.54-2.344
		l2.216-8.391h1.47l-3.617,12.422h-1.17l-2.813-8.494l-0.494-2.012h-0.068l-0.494,2.012l-2.755,8.494h-1.182l-3.605-12.422h1.469
		L19.924,78.08z"/>
	<path fill="#FFFFFF" d="M39.761,82.352c-1.607,0-2.912-0.568-3.915-1.705c-1.002-1.135-1.503-2.596-1.503-4.379v-0.631
		c0-1.791,0.506-3.27,1.521-4.434c1.014-1.162,2.271-1.744,3.771-1.744c1.508,0,2.673,0.484,3.495,1.451
		c0.824,0.969,1.235,2.271,1.235,3.91v1.066h-8.645v0.381c0,1.414,0.357,2.592,1.073,3.523c0.715,0.936,1.705,1.402,2.967,1.402
		c0.758,0,1.455-0.125,2.09-0.375c0.635-0.246,1.163-0.582,1.584-1.002l0.585,0.939c-0.436,0.459-1.008,0.84-1.717,1.145
		C41.597,82.199,40.749,82.352,39.761,82.352z M39.635,70.631c-1.056,0-1.925,0.379-2.606,1.137
		c-0.68,0.756-1.079,1.717-1.194,2.881l0.035,0.07h7.118V74.43c0-1.102-0.289-2.012-0.867-2.725
		C41.543,70.988,40.714,70.631,39.635,70.631z"/>
	<path fill="#FFFFFF" d="M57.154,76.244c0,1.859-0.421,3.342-1.263,4.447s-2,1.66-3.479,1.66c-0.903,0-1.685-0.18-2.348-0.543
		c-0.662-0.365-1.2-0.885-1.613-1.559l-0.23,1.861h-1.079v-17.91h1.378v7.395c0.413-0.682,0.94-1.207,1.584-1.58
		c0.643-0.369,1.403-0.557,2.284-0.557c1.492,0,2.659,0.596,3.501,1.787c0.842,1.189,1.263,2.773,1.263,4.758V76.244z
		 M55.765,76.004c0-1.586-0.307-2.873-0.918-3.863c-0.612-0.992-1.519-1.488-2.721-1.488c-0.949,0-1.714,0.234-2.296,0.695
		c-0.582,0.463-1.018,1.063-1.309,1.797v5.682c0.306,0.721,0.759,1.289,1.36,1.707c0.601,0.416,1.357,0.625,2.267,0.625
		c1.203,0,2.105-0.445,2.71-1.332c0.604-0.887,0.907-2.082,0.907-3.582V76.004z"/>
	<path fill="#FFFFFF" d="M65.409,76.004c0-1.984,0.419-3.568,1.256-4.758c0.839-1.191,2.008-1.787,3.508-1.787
		c0.849,0,1.594,0.18,2.232,0.539c0.639,0.361,1.169,0.871,1.591,1.527v-7.324h1.377v17.91h-1.125l-0.195-1.801
		c-0.421,0.656-0.957,1.162-1.607,1.516c-0.651,0.348-1.416,0.525-2.296,0.525c-1.484,0-2.646-0.555-3.485-1.66
		c-0.837-1.105-1.256-2.588-1.256-4.447V76.004z M66.787,76.244c0,1.5,0.3,2.695,0.901,3.582s1.506,1.332,2.715,1.332
		c0.888,0,1.627-0.199,2.216-0.59c0.589-0.396,1.048-0.939,1.378-1.637v-5.893c-0.314-0.701-0.758-1.275-1.333-1.719
		c-0.574-0.445-1.32-0.668-2.239-0.668c-1.209,0-2.117,0.496-2.727,1.488c-0.608,0.99-0.912,2.277-0.912,3.863V76.244z"/>
	<path fill="#FFFFFF" d="M83.754,82.352c-1.607,0-2.912-0.568-3.915-1.705c-1.002-1.135-1.503-2.596-1.503-4.379v-0.631
		c0-1.791,0.507-3.27,1.521-4.434c1.014-1.162,2.271-1.744,3.771-1.744c1.508,0,2.673,0.484,3.495,1.451
		c0.823,0.969,1.235,2.271,1.235,3.91v1.066h-8.645v0.381c0,1.414,0.357,2.592,1.072,3.523c0.716,0.936,1.705,1.402,2.968,1.402
		c0.758,0,1.455-0.125,2.09-0.375c0.635-0.246,1.163-0.582,1.584-1.002l0.585,0.939c-0.436,0.459-1.008,0.84-1.717,1.145
		C85.589,82.199,84.741,82.352,83.754,82.352z M83.628,70.631c-1.057,0-1.925,0.379-2.606,1.137
		c-0.68,0.756-1.079,1.717-1.194,2.881l0.035,0.07h7.118V74.43c0-1.102-0.289-2.012-0.867-2.725
		C85.536,70.988,84.707,70.631,83.628,70.631z"/>
	<path fill="#FFFFFF" d="M98.576,78.932c0-0.582-0.24-1.09-0.717-1.521c-0.479-0.432-1.342-0.789-2.59-1.064
		c-1.469-0.305-2.562-0.723-3.278-1.256c-0.716-0.529-1.073-1.275-1.073-2.232c0-0.949,0.4-1.752,1.2-2.41
		c0.799-0.658,1.857-0.988,3.174-0.988c1.385,0,2.491,0.35,3.317,1.053c0.827,0.699,1.221,1.561,1.183,2.586l-0.022,0.068h-1.274
		c0-0.68-0.292-1.273-0.879-1.779c-0.585-0.504-1.36-0.756-2.324-0.756c-0.996,0-1.745,0.219-2.25,0.654s-0.757,0.945-0.757,1.527
		c0,0.564,0.216,1.033,0.648,1.404c0.433,0.373,1.296,0.699,2.59,0.982c1.454,0.32,2.553,0.77,3.3,1.344
		c0.746,0.572,1.119,1.348,1.119,2.318c0,1.035-0.419,1.873-1.256,2.52c-0.839,0.646-1.947,0.971-3.325,0.971
		c-1.507,0-2.691-0.361-3.553-1.078c-0.861-0.719-1.269-1.578-1.223-2.57l0.023-0.072h1.263c0.053,0.898,0.418,1.549,1.096,1.955
		c0.677,0.402,1.475,0.607,2.393,0.607c0.996,0,1.78-0.223,2.354-0.668C98.288,80.084,98.576,79.551,98.576,78.932z"/>
	<path fill="#FFFFFF" d="M104.648,66.131h-1.366v-1.93h1.366V66.131z M104.648,82.111h-1.366V69.689h1.366V82.111z"/>
	<path fill="#FFFFFF" d="M107.955,76.004c0-1.984,0.419-3.568,1.256-4.758c0.838-1.191,2.007-1.787,3.507-1.787
		c0.881,0,1.646,0.189,2.296,0.568c0.651,0.379,1.187,0.916,1.607,1.613l0.196-1.951h1.113v12.488c0,1.588-0.436,2.807-1.309,3.664
		c-0.872,0.857-2.108,1.285-3.708,1.285c-0.597,0-1.233-0.074-1.912-0.219c-0.677-0.145-1.268-0.342-1.773-0.598l0.264-1.158
		c0.498,0.244,1.027,0.432,1.59,0.559c0.563,0.123,1.166,0.188,1.808,0.188c1.225,0,2.139-0.314,2.744-0.939
		c0.604-0.629,0.907-1.555,0.907-2.781v-1.754c-0.421,0.621-0.955,1.094-1.602,1.43c-0.647,0.332-1.395,0.498-2.244,0.498
		c-1.485,0-2.646-0.555-3.485-1.664c-0.837-1.107-1.256-2.592-1.256-4.443V76.004z M109.332,76.244c0,1.5,0.302,2.695,0.907,3.582
		c0.604,0.887,1.511,1.332,2.721,1.332c0.872,0,1.605-0.199,2.198-0.59c0.593-0.396,1.054-0.936,1.384-1.625V73.02
		c-0.314-0.697-0.76-1.266-1.338-1.707c-0.578-0.439-1.318-0.66-2.221-0.66c-1.209,0-2.12,0.498-2.732,1.494
		c-0.612,0.994-0.918,2.281-0.918,3.857V76.244z"/>
	<path fill="#FFFFFF" d="M122.753,69.689l0.126,2.156c0.406-0.756,0.945-1.344,1.619-1.762c0.674-0.418,1.474-0.625,2.399-0.625
		c1.347,0,2.373,0.412,3.077,1.236c0.704,0.82,1.056,2.105,1.056,3.85v7.566h-1.377v-7.555c0-1.426-0.267-2.432-0.798-3.02
		c-0.532-0.588-1.288-0.885-2.267-0.885c-0.979,0-1.77,0.242-2.371,0.725s-1.035,1.129-1.303,1.939v8.795h-1.377V69.689H122.753z"/>
	<path fill="#FFFFFF" d="M136.299,82.111h-1.572v-1.883h1.572V82.111z"/>
	<path fill="#FFFFFF" d="M153.818,82.111c-0.084-0.438-0.148-0.813-0.189-1.127c-0.043-0.314-0.063-0.635-0.063-0.963
		c-0.43,0.674-1.031,1.23-1.803,1.67c-0.773,0.441-1.662,0.66-2.664,0.66c-1.217,0-2.161-0.324-2.83-0.971
		c-0.671-0.646-1.005-1.523-1.005-2.631c0-1.115,0.486-2.012,1.457-2.701c0.973-0.688,2.237-1.033,3.79-1.033h3.054v-1.537
		c0-0.889-0.283-1.586-0.844-2.092c-0.564-0.504-1.357-0.756-2.382-0.756c-0.941,0-1.701,0.23-2.279,0.689
		c-0.578,0.459-0.867,1.035-0.867,1.732h-1.274l-0.023-0.068c-0.046-0.934,0.354-1.756,1.201-2.463
		c0.844-0.707,1.948-1.063,3.311-1.063c1.363,0,2.457,0.35,3.283,1.045c0.828,0.695,1.24,1.695,1.24,2.996v6.107
		c0,0.438,0.023,0.861,0.074,1.275c0.051,0.412,0.133,0.822,0.248,1.229H153.818z M149.25,81.137c1.055,0,1.97-0.252,2.742-0.752
		c0.773-0.502,1.297-1.148,1.574-1.936V76.07H150.5c-1.117,0-2.039,0.268-2.767,0.799c-0.726,0.533-1.09,1.172-1.09,1.926
		c0,0.703,0.231,1.268,0.694,1.699C147.801,80.922,148.438,81.137,149.25,81.137z"/>
	<path fill="#FFFFFF" d="M159.813,69.689l0.125,2.156c0.404-0.756,0.945-1.344,1.619-1.762c0.672-0.418,1.473-0.625,2.398-0.625
		c1.346,0,2.373,0.412,3.076,1.236c0.703,0.82,1.057,2.105,1.057,3.85v7.566h-1.379v-7.555c0-1.426-0.264-2.432-0.797-3.02
		c-0.531-0.588-1.287-0.885-2.268-0.885c-0.979,0-1.77,0.242-2.371,0.725c-0.6,0.482-1.035,1.129-1.303,1.939v8.795h-1.377V69.689
		H159.813z"/>
	<path fill="#FFFFFF" d="M171.141,76.004c0-1.984,0.42-3.568,1.256-4.758c0.842-1.191,2.012-1.787,3.51-1.787
		c0.85,0,1.592,0.18,2.232,0.539c0.637,0.361,1.168,0.871,1.592,1.527v-7.324h1.379v17.91h-1.127l-0.195-1.801
		c-0.42,0.656-0.957,1.162-1.607,1.516c-0.65,0.348-1.416,0.525-2.297,0.525c-1.486,0-2.645-0.555-3.486-1.66
		c-0.836-1.105-1.256-2.588-1.256-4.447V76.004z M172.521,76.244c0,1.5,0.299,2.695,0.9,3.582s1.504,1.332,2.713,1.332
		c0.891,0,1.629-0.199,2.219-0.59c0.586-0.396,1.045-0.939,1.377-1.637v-5.893c-0.314-0.701-0.76-1.275-1.332-1.719
		c-0.576-0.445-1.32-0.668-2.238-0.668c-1.213,0-2.119,0.496-2.729,1.488c-0.607,0.99-0.91,2.277-0.91,3.863V76.244z"/>
	<path fill="#FFFFFF" d="M190.441,70.871l-0.975-0.068c-0.867,0-1.576,0.242-2.131,0.729s-0.953,1.154-1.189,2.004v8.576h-1.379
		V69.689h1.207l0.172,2.064v0.139c0.359-0.766,0.844-1.361,1.447-1.791c0.605-0.428,1.324-0.643,2.158-0.643
		c0.166,0,0.328,0.014,0.48,0.041c0.154,0.025,0.279,0.055,0.381,0.086L190.441,70.871z"/>
	<path fill="#FFFFFF" d="M191.797,75.717c0-1.828,0.498-3.33,1.502-4.502c1.002-1.17,2.33-1.756,3.984-1.756
		c1.66,0,2.992,0.586,3.996,1.756c1.002,1.172,1.504,2.674,1.504,4.502v0.379c0,1.838-0.502,3.338-1.498,4.504
		c-1,1.168-2.324,1.752-3.977,1.752c-1.672,0-3.008-0.584-4.01-1.752c-1.004-1.166-1.502-2.666-1.502-4.504V75.717z M193.174,76.096
		c0,1.438,0.361,2.65,1.09,3.629c0.727,0.977,1.74,1.469,3.045,1.469c1.275,0,2.281-0.492,3.012-1.469
		c0.732-0.979,1.096-2.191,1.096-3.629v-0.379c0-1.416-0.367-2.619-1.102-3.605c-0.734-0.988-1.746-1.48-3.031-1.48
		s-2.293,0.492-3.02,1.48c-0.729,0.986-1.09,2.189-1.09,3.605V76.096z"/>
	<path fill="#FFFFFF" d="M207.191,66.131h-1.367v-1.93h1.367V66.131z M207.191,82.111h-1.367V69.689h1.367V82.111z"/>
	<path fill="#FFFFFF" d="M210.451,76.004c0-1.984,0.418-3.568,1.254-4.758c0.844-1.191,2.01-1.787,3.51-1.787
		c0.85,0,1.592,0.18,2.232,0.539c0.639,0.361,1.17,0.871,1.592,1.527v-7.324h1.379v17.91h-1.127l-0.197-1.801
		c-0.42,0.656-0.955,1.162-1.605,1.516c-0.65,0.348-1.416,0.525-2.297,0.525c-1.486,0-2.643-0.555-3.486-1.66
		c-0.836-1.105-1.254-2.588-1.254-4.447V76.004z M211.83,76.244c0,1.5,0.301,2.695,0.9,3.582s1.506,1.332,2.713,1.332
		c0.891,0,1.627-0.199,2.217-0.59c0.59-0.396,1.047-0.939,1.379-1.637v-5.893c-0.314-0.701-0.76-1.275-1.332-1.719
		c-0.574-0.445-1.32-0.668-2.238-0.668c-1.213,0-2.121,0.496-2.729,1.488c-0.607,0.99-0.91,2.277-0.91,3.863V76.244z"/>
	<path fill="#FFFFFF" d="M225.754,82.111h-1.572v-1.883h1.572V82.111z"/>
	<path fill="#FFFFFF" d="M242.848,78.932c0-0.582-0.24-1.09-0.717-1.521c-0.48-0.432-1.344-0.789-2.592-1.064
		c-1.469-0.305-2.563-0.723-3.275-1.256c-0.717-0.529-1.074-1.275-1.074-2.232c0-0.949,0.398-1.752,1.199-2.41
		c0.799-0.658,1.861-0.988,3.174-0.988c1.383,0,2.49,0.35,3.316,1.053c0.826,0.699,1.223,1.561,1.186,2.586l-0.023,0.068h-1.275
		c0-0.68-0.293-1.273-0.879-1.779c-0.584-0.504-1.361-0.756-2.324-0.756c-0.994,0-1.746,0.219-2.25,0.654
		c-0.506,0.436-0.756,0.945-0.756,1.527c0,0.564,0.215,1.033,0.646,1.404c0.436,0.373,1.295,0.699,2.588,0.982
		c1.457,0.32,2.555,0.77,3.305,1.344c0.744,0.572,1.117,1.348,1.117,2.318c0,1.035-0.418,1.873-1.256,2.52
		c-0.84,0.646-1.945,0.971-3.324,0.971c-1.508,0-2.691-0.361-3.553-1.078c-0.863-0.719-1.268-1.578-1.223-2.57l0.02-0.072h1.266
		c0.053,0.898,0.418,1.549,1.096,1.955c0.678,0.402,1.477,0.607,2.395,0.607c0.992,0,1.775-0.223,2.354-0.668
		C242.557,80.084,242.848,79.551,242.848,78.932z"/>
	<path fill="#FFFFFF" d="M249.525,66.51v3.18h2.736v1.125h-2.736v8.094c0,0.813,0.148,1.389,0.443,1.727
		c0.297,0.342,0.689,0.512,1.176,0.512c0.17,0,0.332-0.01,0.486-0.027c0.16-0.021,0.344-0.053,0.561-0.1l0.209,1.021
		c-0.186,0.092-0.414,0.166-0.688,0.225c-0.271,0.059-0.539,0.086-0.809,0.086c-0.873,0-1.549-0.275-2.037-0.826
		c-0.484-0.551-0.729-1.424-0.729-2.617v-8.094h-2.148v-1.125h2.148v-3.18H249.525z"/>
	<path fill="#FFFFFF" d="M263.074,80.092c-0.396,0.727-0.932,1.285-1.6,1.674c-0.672,0.391-1.463,0.586-2.383,0.586
		c-1.311,0-2.334-0.445-3.076-1.332c-0.746-0.887-1.115-2.264-1.115-4.133v-7.197h1.377v7.221c0,1.516,0.258,2.602,0.777,3.262
		c0.516,0.658,1.248,0.986,2.195,0.986c1.037,0,1.859-0.234,2.475-0.695c0.619-0.463,1.053-1.096,1.303-1.896v-8.877h1.379v12.422
		h-1.217L263.074,80.092z"/>
	<path fill="#FFFFFF" d="M268.979,82.111V70.814h-2.059v-1.125h2.059v-1.814c0-1.248,0.313-2.211,0.938-2.893
		c0.629-0.682,1.506-1.021,2.633-1.021c0.244,0,0.492,0.02,0.754,0.057c0.262,0.039,0.531,0.092,0.805,0.16l-0.184,1.137
		c-0.184-0.045-0.371-0.082-0.563-0.107c-0.191-0.029-0.418-0.041-0.676-0.041c-0.752,0-1.328,0.238-1.73,0.711
		c-0.4,0.475-0.602,1.141-0.602,1.998v1.814h2.813v1.125h-2.813v11.297H268.979z"/>
	<path fill="#FFFFFF" d="M276.527,82.111V70.814h-2.055v-1.125h2.055v-1.814c0-1.248,0.316-2.211,0.943-2.893
		s1.504-1.021,2.631-1.021c0.24,0,0.498,0.02,0.754,0.057c0.262,0.039,0.531,0.092,0.807,0.16l-0.186,1.137
		c-0.184-0.045-0.369-0.082-0.561-0.107c-0.191-0.029-0.418-0.041-0.68-0.041c-0.746,0-1.324,0.238-1.725,0.711
		c-0.404,0.475-0.605,1.141-0.605,1.998v1.814h2.811v1.125h-2.811v11.297H276.527z"/>
	<path fill="#FFFFFF" d="M284.818,82.111h-1.572v-1.883h1.572V82.111z"/>
</g>
</svg>
